<?xml version="1.0" standalone="no"?>
<!DOCTYPE svg PUBLIC "-//W3C//DTD SVG 20010904//EN"
 "http://www.w3.org/TR/2001/REC-SVG-20010904/DTD/svg10.dtd">
<svg version="1.0" xmlns="http://www.w3.org/2000/svg"
 width="1024.000000pt" height="1024.000000pt" viewBox="0 0 1024.000000 1024.000000"
 preserveAspectRatio="xMidYMid meet">
<metadata>
Created by potrace 1.16, written by Peter Selinger 2001-2019
</metadata>
<g transform="translate(0.000000,1024.000000) scale(0.100000,-0.100000)"
fill="#000000" stroke="none">
<path d="M0 5120 l0 -5120 5120 0 5120 0 0 5120 0 5120 -5120 0 -5120 0 0
-5120z m6213 1584 c212 -72 472 -626 566 -1209 40 -245 50 -783 17 -929 -36
-161 -91 -264 -161 -303 -49 -27 -279 -75 -354 -74 -81 1 -132 31 -200 116
-71 89 -134 205 -194 355 -61 153 -110 322 -95 331 5 4 58 15 115 25 123 21
158 40 191 104 18 36 22 61 22 136 0 198 -89 425 -184 471 -31 14 -41 14 -127
-1 -52 -8 -103 -18 -115 -22 -18 -5 -23 2 -37 48 -91 294 -98 619 -17 778 19
37 60 83 97 107 26 18 328 81 389 82 22 1 61 -6 87 -15z m529 -280 c92 -47
138 -104 230 -290 l83 -168 57 -19 c147 -47 218 -176 218 -396 0 -108 -15
-141 -92 -199 l-58 -43 0 -129 c0 -265 -56 -401 -192 -471 l-39 -20 8 28 c13
48 9 520 -5 630 -7 57 -15 112 -17 122 -2 11 -7 41 -10 68 -36 248 -143 582
-259 811 l-53 102 39 0 c22 0 61 -11 90 -26z m-2736 -212 c211 -109 464 -700
544 -1268 28 -206 44 -591 30 -742 -22 -241 -85 -385 -187 -428 -39 -17 -258
-64 -328 -71 -83 -8 -131 11 -197 79 l-59 59 55 59 c105 115 140 235 141 490
0 285 -42 572 -121 821 -25 79 -55 173 -66 208 -28 90 -80 200 -126 268 -73
107 -186 208 -262 235 -36 12 -37 19 -6 103 38 105 75 135 199 162 210 46 246
52 293 49 28 -3 69 -13 90 -24z m-590 -497 c129 -75 220 -249 319 -605 77
-279 112 -531 102 -749 -12 -244 -61 -355 -176 -396 -54 -19 -87 -19 -140 0
-107 37 -171 129 -239 342 l-11 32 57 12 c75 15 104 46 122 127 34 162 -32
511 -121 642 -18 27 -51 58 -72 70 -38 22 -47 22 -138 4 -25 -5 -26 -3 -38 68
-15 95 -17 233 -3 283 15 53 64 129 98 151 47 31 127 54 164 48 19 -3 54 -16
76 -29z m2485 -155 c53 -56 84 -155 84 -273 0 -84 -1 -90 -28 -112 -33 -29
-72 -41 -200 -60 -126 -19 -290 -52 -547 -110 -163 -37 -467 -94 -501 -95 -4
0 -12 39 -19 88 -17 121 -35 204 -63 295 l-25 77 22 5 c104 24 712 148 786
160 19 3 42 8 50 10 8 2 33 7 55 10 22 3 87 14 145 24 58 10 127 19 154 20 45
1 52 -2 87 -39z m-2713 -554 c61 -32 121 -200 128 -356 5 -126 -9 -156 -86
-185 -104 -40 -197 -30 -244 26 -36 43 -76 178 -83 279 -9 129 24 220 87 243
32 12 171 7 198 -7z"/>
</g>
</svg>
